<svg width="200.16" height="43.056" viewBox="0 0 200.16 43.056" xmlns="http://www.w3.org/2000/svg"><g id="svgGroup" stroke-linecap="round" fill-rule="evenodd" font-size="9pt" stroke="#000" stroke-width="0mm" fill="none" style="stroke:#000;stroke-width:0mm;fill:#000"><path d="M 99.456 35.712 L 97.536 35.136 L 97.584 34.992 A 0.43 0.43 0 0 0 97.328 34.59 Q 97.14 34.492 96.816 34.467 A 2.67 2.67 0 0 0 96.768 34.464 A 6.8 6.8 0 0 1 95.195 33.108 A 7.858 7.858 0 0 1 94.968 32.832 A 10.982 10.982 0 0 1 94.522 32.225 Q 94.086 31.584 93.888 31.056 A 60.766 60.766 0 0 1 93.809 30.875 Q 93.563 30.306 93.552 30.244 A 0.028 0.028 0 0 1 93.552 30.24 A 0.233 0.233 0 0 1 93.62 30.076 Q 93.659 30.035 93.72 30 A 15.987 15.987 0 0 0 93.856 29.921 Q 93.917 29.886 93.985 29.845 A 32.787 32.787 0 0 0 94.128 29.76 A 1.082 1.082 0 0 1 94.404 29.59 A 0.896 0.896 0 0 1 94.752 29.52 A 0.361 0.361 0 0 1 94.949 29.581 Q 95.004 29.616 95.057 29.672 A 0.861 0.861 0 0 1 95.112 29.736 Q 95.28 29.952 95.568 30.48 A 3.298 3.298 0 0 0 96.426 31.448 Q 96.807 31.743 97.302 31.981 A 6.265 6.265 0 0 0 97.536 32.088 A 7.255 7.255 0 0 0 99.426 32.604 A 9.355 9.355 0 0 0 100.704 32.688 Q 102.864 32.688 104.736 31.824 Q 105.875 31.342 106.455 30.88 A 3.016 3.016 0 0 0 106.56 30.792 A 1.993 1.993 0 0 0 106.885 30.436 A 1.323 1.323 0 0 0 107.136 29.664 Q 107.136 29.119 106.663 28.359 A 5.797 5.797 0 0 0 106.608 28.272 Q 106.464 27.888 106.2 27.576 A 5.05 5.05 0 0 0 105.993 27.347 Q 105.882 27.231 105.748 27.103 A 12.472 12.472 0 0 0 105.456 26.832 A 4.92 4.92 0 0 1 105.305 26.699 Q 105.063 26.481 104.633 26.056 A 64.711 64.711 0 0 1 104.352 25.776 Q 103.584 25.488 102.768 25.008 L 101.76 24.528 Q 100.889 24.141 99.834 23.375 A 20.974 20.974 0 0 1 98.76 22.536 Q 97.283 21.309 96.654 20.352 A 4.077 4.077 0 0 1 96.48 20.064 A 3.517 3.517 0 0 1 95.855 19.279 Q 95.638 18.914 95.471 18.466 A 6.188 6.188 0 0 1 95.424 18.336 Q 95.04 17.232 95.04 15.936 A 7.209 7.209 0 0 1 95.404 13.625 A 6.649 6.649 0 0 1 95.76 12.768 A 7.002 7.002 0 0 1 96.179 11.984 Q 96.874 10.842 98.304 9.168 Q 100.272 6.864 101.328 6.144 L 102.576 4.944 A 0.692 0.692 0 0 1 102.599 4.868 Q 102.645 4.747 102.72 4.728 Q 102.796 4.709 102.842 4.705 A 0.26 0.26 0 0 1 102.864 4.704 A 0.91 0.91 0 0 1 102.943 4.659 Q 103.129 4.562 103.635 4.347 A 43.78 43.78 0 0 1 103.872 4.248 Q 104.736 3.888 105.696 2.976 A 87.989 87.989 0 0 1 107.612 2.073 Q 109.583 1.174 110.952 0.696 Q 112.899 0.016 114.181 0 A 4.914 4.914 0 0 1 114.24 0 A 5.796 5.796 0 0 1 115.914 0.326 A 4.867 4.867 0 0 1 117.336 1.128 Q 118.608 2.16 118.848 3.84 A 1.428 1.428 0 0 1 118.897 4.036 Q 118.933 4.241 118.942 4.531 A 6.132 6.132 0 0 1 118.944 4.704 A 5.578 5.578 0 0 1 118.661 6.411 Q 118.437 7.108 118.036 7.843 A 11.085 11.085 0 0 1 117.696 8.424 A 10.689 10.689 0 0 1 116.632 9.858 Q 115.962 10.611 115.214 11.111 A 6.205 6.205 0 0 1 114.864 11.328 Q 113.758 11.815 113.264 11.853 A 1.038 1.038 0 0 1 113.184 11.856 A 0.725 0.725 0 0 1 113.014 11.838 A 0.41 0.41 0 0 1 112.728 11.616 Q 112.608 11.377 112.656 10.85 A 4.306 4.306 0 0 1 112.656 10.848 Q 112.656 10.416 112.968 9.864 A 3.901 3.901 0 0 1 113.166 9.556 Q 113.511 9.063 114.227 8.243 A 39.213 39.213 0 0 1 114.384 8.064 A 23.438 23.438 0 0 0 115.198 6.816 Q 116.352 4.906 116.352 3.84 A 1.36 1.36 0 0 0 116.318 3.52 Q 116.213 3.091 115.793 2.998 A 1.088 1.088 0 0 0 115.632 2.976 A 0.966 0.966 0 0 0 115.495 2.951 Q 114.867 2.875 112.968 3.216 A 31.35 31.35 0 0 0 112.353 3.332 Q 111.145 3.575 110.896 3.752 A 0.122 0.122 0 0 0 110.832 3.84 A 0.32 0.32 0 0 1 110.831 3.868 Q 110.826 3.916 110.81 4 A 3.158 3.158 0 0 1 110.808 4.008 A 0.146 0.146 0 0 1 110.795 4.046 Q 110.761 4.112 110.662 4.086 A 0.333 0.333 0 0 1 110.64 4.08 A 0.044 0.044 0 0 0 110.63 4.079 Q 110.404 4.079 107.876 5.596 A 182.203 182.203 0 0 0 107.088 6.072 Q 103.728 8.112 103.632 8.352 A 0.589 0.589 0 0 1 103.559 8.535 Q 103.473 8.681 103.296 8.835 A 2.127 2.127 0 0 1 103.272 8.856 A 2.837 2.837 0 0 1 102.835 9.158 A 3.554 3.554 0 0 1 102.528 9.312 A 5.147 5.147 0 0 0 101.522 10.083 A 6.87 6.87 0 0 0 100.848 10.848 Q 100.154 11.759 99.226 13.374 A 50.058 50.058 0 0 0 99.024 13.728 Q 98.448 14.544 98.088 15.504 A 6.505 6.505 0 0 0 97.857 16.245 Q 97.764 16.625 97.738 16.968 A 3.496 3.496 0 0 0 97.728 17.232 A 3.26 3.26 0 0 0 97.754 17.652 Q 97.782 17.871 97.843 18.059 A 1.878 1.878 0 0 0 97.872 18.144 A 2.35 2.35 0 0 0 98.103 18.66 Q 98.483 19.309 99.36 20.136 Q 100.608 21.312 102.48 22.416 A 40.812 40.812 0 0 1 104.405 23.578 Q 105.321 24.168 106.089 24.745 A 21.94 21.94 0 0 1 106.584 25.128 Q 107.877 26.159 108.424 26.941 A 2.921 2.921 0 0 1 108.672 27.36 Q 109.776 28.896 109.776 30.768 Q 109.776 31.44 109.632 32.016 Q 109.248 32.832 108.432 33.624 A 4.659 4.659 0 0 1 108.061 33.95 Q 107.524 34.371 107.107 34.371 A 0.802 0.802 0 0 1 107.04 34.368 A 3.904 3.904 0 0 0 106.648 34.508 Q 106.413 34.606 106.224 34.728 Q 105.888 34.944 105.648 35.04 A 1.627 1.627 0 0 1 105.324 35.19 Q 104.769 35.386 103.619 35.534 A 25.103 25.103 0 0 1 103.128 35.592 Q 101.749 35.742 100.519 35.742 A 18.646 18.646 0 0 1 99.456 35.712 Z M 1.488 18.624 L 1.92 17.616 A 82.414 82.414 0 0 1 2.235 16.819 Q 2.669 15.741 2.924 15.221 A 5.696 5.696 0 0 1 3.024 15.024 A 16.492 16.492 0 0 1 3.656 13.747 Q 4.368 12.437 5.517 10.741 A 61.988 61.988 0 0 1 5.904 10.176 Q 7.381 7.922 8.354 6.66 A 19.135 19.135 0 0 1 8.784 6.12 A 17.314 17.314 0 0 1 9.662 5.136 Q 10.107 4.677 10.538 4.313 A 9.407 9.407 0 0 1 10.824 4.08 Q 11.808 3.312 14.448 1.488 Q 15.552 0.672 16.992 0.672 Q 18.192 0.672 19.224 1.272 Q 20.256 1.872 20.784 2.976 A 3.482 3.482 0 0 1 21.126 3.82 Q 21.236 4.231 21.281 4.719 A 7.708 7.708 0 0 1 21.312 5.424 A 10.878 10.878 0 0 1 20.939 8.19 A 14.079 14.079 0 0 1 20.352 9.936 Q 19.461 12.118 18.116 13.432 A 7.414 7.414 0 0 1 17.904 13.632 Q 17.598 13.907 17.312 14.007 A 0.967 0.967 0 0 1 16.992 14.064 A 1.012 1.012 0 0 1 16.649 13.996 Q 16.208 13.836 15.6 13.296 Q 15.168 12.48 15.12 12.336 Q 15.077 12.206 15.267 12.154 A 0.676 0.676 0 0 1 15.312 12.144 Q 15.729 11.634 16.527 10.207 A 47.804 47.804 0 0 0 16.584 10.104 Q 17.276 8.858 17.594 8.052 A 6.487 6.487 0 0 0 17.712 7.728 Q 17.808 7.44 17.904 6.768 Q 18.235 5.319 18.281 4.691 A 2.502 2.502 0 0 0 18.288 4.512 A 1.598 1.598 0 0 0 18.245 4.129 A 1.106 1.106 0 0 0 17.952 3.6 A 0.482 0.482 0 0 0 17.689 3.466 A 0.687 0.687 0 0 0 17.568 3.456 A 1.034 1.034 0 0 0 17.348 3.484 Q 16.99 3.564 16.362 3.868 A 12.436 12.436 0 0 0 16.224 3.936 A 5.052 5.052 0 0 0 15.527 4.301 Q 14.573 4.888 13.296 6.096 Q 11.52 7.776 10.08 9.744 Q 7.973 12.493 6.806 14.323 A 30.221 30.221 0 0 0 6.696 14.496 A 17.693 17.693 0 0 0 5.291 17.212 A 15.536 15.536 0 0 0 4.896 18.288 L 4.368 19.536 Q 4.411 19.709 4.26 20.347 A 11.927 11.927 0 0 1 4.224 20.496 A 8.924 8.924 0 0 1 4.08 21.011 Q 4.004 21.25 3.923 21.452 A 4.022 4.022 0 0 1 3.792 21.744 Q 3.12 24.528 3.12 27.264 A 20.28 20.28 0 0 0 3.189 28.978 Q 3.278 30.021 3.48 30.912 A 7.942 7.942 0 0 0 3.693 31.682 Q 4.019 32.649 4.512 33.072 A 1.208 1.208 0 0 0 4.922 33.302 Q 5.101 33.363 5.321 33.389 A 2.936 2.936 0 0 0 5.664 33.408 Q 6.336 33.408 7.231 33.173 A 12.105 12.105 0 0 0 8.04 32.928 A 28.799 28.799 0 0 0 9.141 32.527 Q 9.67 32.324 10.264 32.076 A 64.566 64.566 0 0 0 11.52 31.536 Q 12.624 31.104 13.608 30.528 A 12.323 12.323 0 0 0 14.174 30.177 Q 14.742 29.802 15.072 29.472 Q 16.051 28.756 16.735 28.602 A 1.609 1.609 0 0 1 17.088 28.56 A 7.623 7.623 0 0 1 17.303 28.485 Q 17.611 28.384 17.764 28.37 A 0.5 0.5 0 0 1 17.808 28.368 A 0.112 0.112 0 0 1 17.867 28.383 Q 17.908 28.408 17.925 28.474 A 0.295 0.295 0 0 1 17.928 28.488 Q 17.952 28.608 17.952 28.8 A 1.501 1.501 0 0 1 17.833 29.366 Q 17.742 29.591 17.579 29.829 A 4.034 4.034 0 0 1 17.232 30.264 A 6.807 6.807 0 0 1 16.459 30.985 Q 15.954 31.391 15.312 31.776 A 6.608 6.608 0 0 1 13.175 33.196 A 7.59 7.59 0 0 1 13.008 33.264 A 16.714 16.714 0 0 1 11.006 34.49 A 21.247 21.247 0 0 1 9.432 35.232 A 12.483 12.483 0 0 1 7.841 35.789 Q 6.995 36.019 6.22 36.077 A 6.867 6.867 0 0 1 5.712 36.096 Q 5.328 36.096 4.752 36 Q 3.584 35.585 2.756 35.082 A 6.704 6.704 0 0 1 2.328 34.8 Q 1.591 34.271 1.047 33.206 A 7.845 7.845 0 0 1 0.768 32.592 A 12.612 12.612 0 0 1 0.198 30.28 Q 0.026 29.157 0.003 27.884 A 21.759 21.759 0 0 1 0 27.504 Q 0 24.672 0.336 22.68 Q 0.672 20.688 1.488 18.624 Z M 49.584 6.576 L 48.384 9.072 Q 47.088 11.808 46.272 13.944 A 100.295 100.295 0 0 0 45.486 16.078 Q 45.086 17.202 44.665 18.455 A 165.069 165.069 0 0 0 44.544 18.816 L 43.68 21.168 L 43.44 22.224 L 44.64 21.072 A 11.993 11.993 0 0 0 44.963 20.819 Q 45.576 20.325 46.752 19.296 A 42.947 42.947 0 0 1 47.032 19.058 Q 47.204 18.913 47.352 18.792 A 9.425 9.425 0 0 0 47.505 18.664 Q 47.651 18.54 47.747 18.445 A 2.558 2.558 0 0 0 47.76 18.432 A 6.177 6.177 0 0 1 48.172 18.183 Q 48.609 17.938 49.232 17.66 A 22.208 22.208 0 0 1 49.44 17.568 Q 50.395 17.153 50.848 17.025 A 2.352 2.352 0 0 1 50.976 16.992 A 7.961 7.961 0 0 1 52.217 16.789 A 10.043 10.043 0 0 1 53.088 16.752 A 3.493 3.493 0 0 1 53.852 16.831 A 2.495 2.495 0 0 1 54.768 17.232 A 3.429 3.429 0 0 1 55.286 17.695 Q 55.51 17.937 55.728 18.246 A 7.701 7.701 0 0 1 56.064 18.768 Q 56.496 19.632 56.496 20.64 Q 56.496 22.128 55.728 23.424 Q 55.508 23.6 55.288 23.877 A 4.11 4.11 0 0 0 55.248 23.928 Q 55.008 24.24 55.008 24.432 A 0.65 0.65 0 0 1 54.956 24.586 Q 54.799 24.931 54.197 25.722 A 19.526 19.526 0 0 1 54.192 25.728 Q 53.424 26.736 52.512 27.744 A 13.861 13.861 0 0 1 51.269 28.877 Q 50.603 29.419 49.799 29.96 A 25.89 25.89 0 0 1 49.224 30.336 A 30.128 30.128 0 0 1 48.017 31.066 Q 46.764 31.782 45.84 32.112 A 24.982 24.982 0 0 1 45.677 32.138 Q 45.366 32.188 44.76 32.28 Q 44.163 32.37 43.825 32.447 A 3.687 3.687 0 0 0 43.632 32.496 A 12.222 12.222 0 0 1 43.298 32.458 Q 42.632 32.373 42.456 32.256 Q 42.256 32.122 41.993 31.576 A 6.459 6.459 0 0 1 41.952 31.488 Q 41.568 31.104 41.496 30.864 Q 41.424 30.624 41.472 30.384 A 2.708 2.708 0 0 0 41.671 30.377 Q 41.997 30.353 42.107 30.242 A 0.196 0.196 0 0 0 42.144 30.192 Q 42.144 30.05 42.307 30.002 A 0.433 0.433 0 0 1 42.312 30 Q 42.48 29.952 42.672 30 Q 43.732 30.079 45.562 29.13 A 18.299 18.299 0 0 0 46.416 28.656 A 26.254 26.254 0 0 0 49.323 26.658 A 33.399 33.399 0 0 0 51.312 24.96 Q 52.449 23.509 53.026 22.571 A 9.189 9.189 0 0 0 53.256 22.176 Q 53.737 21.298 53.799 20.711 A 1.592 1.592 0 0 0 53.808 20.544 Q 53.808 20.16 53.664 19.824 A 0.405 0.405 0 0 0 53.483 19.634 Q 53.226 19.488 52.656 19.488 A 4.698 4.698 0 0 0 51 19.804 Q 50.39 20.032 49.766 20.426 A 8.522 8.522 0 0 0 49.584 20.544 Q 47.52 21.84 46.272 22.92 A 14.858 14.858 0 0 0 44.371 24.913 A 16.875 16.875 0 0 0 43.968 25.44 A 7.975 7.975 0 0 0 43.549 26.044 Q 43.346 26.365 43.143 26.742 A 14.695 14.695 0 0 0 43.008 27 A 530.679 530.679 0 0 0 42.814 27.378 Q 42.571 27.854 42.448 28.097 A 33.781 33.781 0 0 0 42.384 28.224 Q 42.384 28.416 41.832 28.704 A 3.521 3.521 0 0 1 41.507 28.854 Q 41.167 28.99 40.905 28.992 A 1.03 1.03 0 0 1 40.896 28.992 A 1.162 1.162 0 0 1 40.723 28.903 Q 40.554 28.8 40.357 28.62 A 3.861 3.861 0 0 1 40.344 28.608 A 1.198 1.198 0 0 1 40.105 28.309 A 1.025 1.025 0 0 1 39.984 27.936 A 1.026 1.026 0 0 0 39.921 27.878 Q 39.849 27.818 39.741 27.743 A 4.463 4.463 0 0 0 39.672 27.696 Q 39.457 27.552 39.384 27.409 A 0.671 0.671 0 0 1 39.323 27.212 A 0.892 0.892 0 0 1 39.312 27.072 A 1.269 1.269 0 0 1 39.325 26.913 Q 39.37 26.569 39.576 25.8 Q 39.839 24.82 39.983 24.34 A 21.575 21.575 0 0 1 39.984 24.336 A 42.663 42.663 0 0 1 40.665 21.579 A 49.463 49.463 0 0 1 40.968 20.544 Q 41.47 18.899 41.72 18.495 A 0.444 0.444 0 0 1 41.808 18.384 A 1.19 1.19 0 0 0 41.83 18.336 Q 41.883 18.217 42.003 17.91 A 40.124 40.124 0 0 0 42.024 17.856 Q 42.192 17.424 42.192 16.944 Q 42.274 16.576 42.443 16.12 A 9.745 9.745 0 0 1 42.504 15.96 A 15.631 15.631 0 0 0 42.577 15.769 Q 42.705 15.43 42.718 15.332 A 0.15 0.15 0 0 0 42.72 15.312 A 0.621 0.621 0 0 0 42.834 15.145 Q 43.16 14.543 44.121 11.894 A 168.946 168.946 0 0 0 44.256 11.52 A 0.541 0.541 0 0 1 44.287 11.39 Q 44.428 10.954 45.203 9.22 A 156.884 156.884 0 0 1 45.312 8.976 Q 46.848 5.485 47.21 4.432 A 6.984 6.984 0 0 0 47.232 4.368 Q 47.664 3.744 48 3.072 Q 48.524 2.119 48.765 2.017 A 0.198 0.198 0 0 1 48.768 2.016 A 0.933 0.933 0 0 1 48.943 1.99 Q 49.281 1.971 49.752 2.16 A 2.204 2.204 0 0 1 50.322 2.488 A 1.903 1.903 0 0 1 50.688 2.88 A 3.187 3.187 0 0 1 50.782 3.018 Q 50.91 3.22 50.926 3.331 A 0.209 0.209 0 0 1 50.928 3.36 A 0.761 0.761 0 0 1 50.914 3.495 Q 50.874 3.71 50.726 4.091 A 9.473 9.473 0 0 1 50.664 4.248 A 18.636 18.636 0 0 1 50.152 5.39 A 20.743 20.743 0 0 1 50.064 5.568 Q 49.731 6.234 49.587 6.57 A 6.326 6.326 0 0 0 49.584 6.576 Z M 146.784 36 L 146.88 34.8 Q 147.105 34.125 147.119 33.239 A 7.501 7.501 0 0 0 147.12 33.12 A 2.393 2.393 0 0 1 147.132 32.918 Q 147.183 32.353 147.456 30.696 Q 147.779 28.732 147.969 27.814 A 20.29 20.29 0 0 1 147.984 27.744 L 148.128 27.168 Q 148.512 25.584 148.704 24.24 Q 149.088 23.04 149.352 21.864 A 24.169 24.169 0 0 0 149.461 21.354 Q 149.591 20.71 149.612 20.374 A 1.913 1.913 0 0 0 149.616 20.256 A 1.734 1.734 0 0 1 149.685 19.752 A 1.251 1.251 0 0 1 150.288 19.008 Q 150.327 18.695 150.78 17.841 A 20.955 20.955 0 0 1 151.008 17.424 Q 152.069 14.418 152.621 12.98 A 47.724 47.724 0 0 1 152.712 12.744 A 20.091 20.091 0 0 1 153.264 11.457 Q 153.557 10.837 153.868 10.306 A 12.311 12.311 0 0 1 153.888 10.272 A 35.854 35.854 0 0 1 154.25 9.307 Q 154.764 8 155.135 7.443 A 2.153 2.153 0 0 1 155.28 7.248 Q 155.616 6.432 157.104 4.848 A 43.133 43.133 0 0 1 158.173 3.748 Q 159.024 2.904 159.744 2.304 Q 160.694 1.786 161.314 1.598 A 3.42 3.42 0 0 1 161.448 1.56 Q 162.096 1.392 163.056 1.392 Q 163.665 1.392 163.994 1.486 A 0.957 0.957 0 0 1 164.184 1.56 A 1.726 1.726 0 0 1 164.353 1.666 Q 164.634 1.864 165.111 2.303 A 20.006 20.006 0 0 1 165.216 2.4 A 22.061 22.061 0 0 1 165.432 2.653 Q 165.763 3.047 165.897 3.253 A 1.129 1.129 0 0 1 165.96 3.36 A 0.763 0.763 0 0 1 166.014 3.512 Q 166.08 3.773 166.08 4.272 Q 165.888 5.28 165.12 6.864 Q 164.376 8.398 163.993 8.491 A 0.219 0.219 0 0 1 163.968 8.496 A 0.784 0.784 0 0 1 163.858 8.523 Q 163.742 8.544 163.584 8.544 A 0.597 0.597 0 0 1 163.013 8.188 Q 162.88 7.922 162.866 7.459 A 3.713 3.713 0 0 1 162.864 7.344 A 1.226 1.226 0 0 0 162.78 6.903 A 1.505 1.505 0 0 0 162.72 6.768 L 162.528 6.384 A 2.545 2.545 0 0 1 162.583 5.839 A 1.8 1.8 0 0 1 162.864 5.184 A 1.603 1.603 0 0 0 162.952 4.975 Q 162.99 4.859 163.003 4.752 A 0.853 0.853 0 0 0 163.008 4.656 A 0.524 0.524 0 0 0 162.997 4.543 Q 162.982 4.477 162.949 4.43 A 0.252 0.252 0 0 0 162.84 4.344 Q 162.7 4.284 162.443 4.341 A 1.82 1.82 0 0 0 162.336 4.368 A 2.484 2.484 0 0 0 162.129 4.501 Q 161.628 4.852 160.414 5.889 A 93.984 93.984 0 0 0 160.2 6.072 Q 158.788 7.285 158.546 7.691 A 0.288 0.288 0 0 0 158.496 7.824 A 4.756 4.756 0 0 1 158.472 7.871 Q 158.413 7.987 158.259 8.277 A 158.005 158.005 0 0 1 158.232 8.328 Q 158.075 8.624 157.804 8.984 A 8.863 8.863 0 0 1 157.584 9.264 A 20.274 20.274 0 0 0 157.29 9.682 Q 156.741 10.487 156.721 10.734 A 0.221 0.221 0 0 0 156.72 10.752 A 2.042 2.042 0 0 1 156.711 10.956 Q 156.69 11.159 156.625 11.264 A 0.217 0.217 0 0 1 156.432 11.376 A 0.992 0.992 0 0 0 156.41 11.425 Q 156.353 11.557 156.216 11.928 Q 156.048 12.384 155.76 12.912 Q 155.568 13.344 155.28 13.872 Q 155.058 14.278 154.894 14.486 A 1.257 1.257 0 0 1 154.8 14.592 L 154.848 14.592 A 204.343 204.343 0 0 0 154.767 14.808 Q 154.65 15.122 154.45 15.658 A 1946.665 1946.665 0 0 0 154.32 16.008 Q 153.936 17.04 153.936 17.184 Q 153.936 17.345 154.406 17.371 A 3.636 3.636 0 0 0 154.608 17.376 A 10.17 10.17 0 0 0 155.993 17.275 Q 156.693 17.178 157.468 16.99 A 18.908 18.908 0 0 0 158.016 16.848 Q 158.64 16.656 158.928 16.656 A 1.664 1.664 0 0 1 159.14 16.671 Q 159.44 16.71 159.888 16.848 A 1.922 1.922 0 0 1 160.367 17.291 Q 160.584 17.567 160.752 17.952 A 3.937 3.937 0 0 1 160.851 18.198 Q 161.056 18.769 160.896 19.008 Q 160.848 19.2 159.864 19.536 Q 158.88 19.872 157.824 20.064 Q 156.336 20.4 155.376 20.544 A 22.92 22.92 0 0 1 155.25 20.569 Q 154.96 20.625 154.21 20.767 A 1044.437 1044.437 0 0 1 153.864 20.832 A 13.994 13.994 0 0 0 153.498 20.906 Q 152.764 21.065 152.625 21.201 A 0.091 0.091 0 0 0 152.592 21.264 A 0.369 0.369 0 0 0 152.351 21.355 A 0.593 0.593 0 0 0 152.256 21.456 A 0.82 0.82 0 0 0 152.167 21.603 Q 152.117 21.71 152.113 21.818 A 0.513 0.513 0 0 0 152.112 21.84 A 3.787 3.787 0 0 1 152.097 22.191 Q 152.063 22.549 151.957 22.777 A 0.971 0.971 0 0 1 151.92 22.848 A 11.282 11.282 0 0 0 151.798 23.245 Q 151.549 24.098 151.08 25.992 A 71.731 71.731 0 0 0 150.876 26.836 Q 150.483 28.51 150.48 28.984 A 1.147 1.147 0 0 0 150.48 28.992 A 1.326 1.326 0 0 0 150.278 29.366 Q 150.096 29.861 150.096 30.72 Q 149.808 31.248 149.808 31.92 A 2.862 2.862 0 0 1 149.802 32.119 Q 149.795 32.214 149.782 32.295 A 1.312 1.312 0 0 1 149.76 32.4 Q 149.76 32.625 149.676 33.438 A 62.37 62.37 0 0 1 149.664 33.552 Q 149.568 34.464 149.568 35.232 L 149.424 36.624 Q 149.376 37.2 149.28 37.68 A 2.066 2.066 0 0 1 149.202 37.969 Q 149.105 38.239 148.944 38.4 Q 148.686 38.572 148.39 38.378 A 0.988 0.988 0 0 1 148.32 38.328 Q 147.996 38.073 147.313 37.303 A 29.599 29.599 0 0 1 147.264 37.248 A 2.296 2.296 0 0 1 147.089 37.053 Q 147.007 36.95 146.951 36.85 A 1.058 1.058 0 0 1 146.88 36.696 Q 146.812 36.508 146.792 36.234 A 3.277 3.277 0 0 1 146.784 36 Z M 34.032 23.52 L 32.928 26.064 A 84.037 84.037 0 0 1 32.341 27.326 Q 32.076 27.883 31.779 28.492 A 152.567 152.567 0 0 1 31.152 29.76 Q 29.904 32.348 29.369 33.645 A 22.401 22.401 0 0 0 29.328 33.744 L 28.704 34.752 Q 26.304 38.592 25.008 40.128 A 29.418 29.418 0 0 1 23.8 41.152 Q 22.024 42.569 20.934 42.862 A 2.741 2.741 0 0 1 20.928 42.864 Q 20.389 43.03 19.672 43.052 A 7.344 7.344 0 0 1 19.44 43.056 Q 17.856 43.056 16.44 42.36 Q 15.024 41.664 14.832 40.752 A 0.685 0.685 0 0 1 14.825 40.655 Q 14.825 40.361 15.072 40.032 A 1.343 1.343 0 0 1 15.238 39.846 Q 15.339 39.753 15.446 39.704 A 0.589 0.589 0 0 1 15.696 39.648 A 0.482 0.482 0 0 1 15.897 39.689 Q 16.002 39.736 16.08 39.84 Q 16.456 40.122 17.177 40.381 A 8.6 8.6 0 0 0 17.208 40.392 A 4.648 4.648 0 0 0 18.493 40.647 A 5.443 5.443 0 0 0 18.816 40.656 Q 19.152 40.656 19.728 40.56 Q 20.471 40.411 21.272 39.802 A 7.029 7.029 0 0 0 21.744 39.408 Q 22.8 38.448 23.664 37.296 Q 24.914 35.458 26.304 32.918 A 87.129 87.129 0 0 0 27.168 31.296 A 2.097 2.097 0 0 1 26.551 30.996 Q 26.314 30.832 26.083 30.594 A 4.352 4.352 0 0 1 25.872 30.36 A 6.749 6.749 0 0 1 25.091 29.216 A 5.999 5.999 0 0 1 24.888 28.8 A 5.304 5.304 0 0 1 24.757 28.477 Q 24.548 27.903 24.624 27.6 L 24.624 27.072 A 0.301 0.301 0 0 1 24.397 26.946 Q 24.119 26.619 23.928 25.44 A 19.099 19.099 0 0 1 23.748 23.911 Q 23.685 23.125 23.669 22.245 A 33.555 33.555 0 0 1 23.664 21.648 A 17.993 17.993 0 0 1 23.675 21.036 Q 23.697 20.403 23.76 19.584 Q 23.952 18.816 23.976 17.688 A 279.802 279.802 0 0 0 23.985 17.232 Q 23.997 16.661 23.999 16.374 A 16.782 16.782 0 0 0 24 16.224 L 24 16.032 Q 24 15.584 24.072 15.34 A 0.759 0.759 0 0 1 24.12 15.216 A 0.959 0.959 0 0 1 24.288 14.981 Q 24.37 14.897 24.477 14.819 A 1.722 1.722 0 0 1 24.528 14.784 A 1.849 1.849 0 0 1 24.96 14.629 A 1.568 1.568 0 0 1 25.296 14.592 A 0.948 0.948 0 0 1 26.128 15.113 Q 26.591 15.872 26.635 17.737 A 17.162 17.162 0 0 1 26.64 18.144 Q 26.64 18.672 26.544 20.208 Q 26.507 20.722 26.499 21.631 A 62.734 62.734 0 0 0 26.496 22.224 A 24.745 24.745 0 0 0 26.579 24.298 Q 26.685 25.56 26.928 26.64 A 8.988 8.988 0 0 0 27.197 27.6 Q 27.537 28.584 28.042 29.11 A 2.259 2.259 0 0 0 28.224 29.28 L 28.512 28.608 A 26.28 26.28 0 0 1 28.732 28.047 Q 29.103 27.132 29.328 26.832 A 47.647 47.647 0 0 0 29.56 26.345 Q 29.905 25.609 30.035 25.25 A 2.089 2.089 0 0 0 30.096 25.056 Q 30.189 24.732 30.595 24.004 A 18.541 18.541 0 0 1 30.624 23.952 L 31.248 22.656 A 67.273 67.273 0 0 1 31.299 22.503 Q 31.417 22.152 31.727 21.236 A 3241.144 3241.144 0 0 1 31.872 20.808 Q 32.252 19.685 32.632 18.873 A 10.103 10.103 0 0 1 32.928 18.288 Q 33.075 17.994 33.335 17.489 A 213.45 213.45 0 0 1 33.504 17.16 Q 33.814 16.559 34.031 16.224 A 3.744 3.744 0 0 1 34.128 16.08 A 1.553 1.553 0 0 1 34.299 15.877 Q 34.404 15.773 34.517 15.71 A 0.8 0.8 0 0 1 34.656 15.648 Q 35.04 15.312 35.28 15.312 Q 35.472 15.312 35.952 15.6 A 3.268 3.268 0 0 1 36.371 16.106 Q 36.589 16.436 36.671 16.775 A 1.738 1.738 0 0 1 36.72 17.184 A 2.19 2.19 0 0 1 36.652 17.679 Q 36.441 18.571 35.568 20.208 Q 35.184 21.312 34.728 22.272 Q 34.335 23.1 34.102 23.428 A 1.494 1.494 0 0 1 34.032 23.52 Z M 117.552 23.904 L 118.416 21.36 L 119.088 19.44 L 120.384 16.656 L 118.464 16.128 A 0.81 0.81 0 0 1 117.926 15.81 A 1.062 1.062 0 0 1 117.912 15.792 A 1.444 1.444 0 0 1 117.798 15.617 Q 117.696 15.429 117.696 15.264 Q 117.696 14.915 118.032 14.428 A 3.823 3.823 0 0 1 118.104 14.328 A 3.796 3.796 0 0 1 118.263 14.127 Q 118.515 13.829 118.691 13.784 A 0.244 0.244 0 0 1 118.752 13.776 A 0.522 0.522 0 0 0 118.834 13.794 Q 118.98 13.817 119.296 13.822 A 12.834 12.834 0 0 0 119.52 13.824 Q 120.696 13.824 121.392 13.728 A 4.871 4.871 0 0 0 121.68 13.68 A 1.088 1.088 0 0 0 122.246 13.161 A 1.605 1.605 0 0 0 122.352 12.912 Q 122.544 12.528 122.808 11.952 Q 123.072 11.376 123.312 10.896 Q 123.453 10.613 123.757 10.03 A 171.154 171.154 0 0 1 123.768 10.008 Q 124.08 9.408 124.56 8.64 Q 124.656 8.496 124.992 7.944 Q 125.328 7.392 125.808 7.008 A 1.109 1.109 0 0 1 126.609 6.672 A 1.362 1.362 0 0 1 126.624 6.672 A 1.016 1.016 0 0 1 126.948 6.731 Q 127.233 6.828 127.592 7.082 A 5.396 5.396 0 0 1 127.872 7.296 Q 127.946 7.406 128.061 7.573 A 37.601 37.601 0 0 0 128.136 7.68 Q 128.246 7.837 128.284 7.974 A 0.516 0.516 0 0 1 128.304 8.112 A 0.386 0.386 0 0 1 128.286 8.217 Q 128.22 8.44 127.92 8.928 Q 127.632 9.504 127.368 9.96 Q 127.187 10.273 127.039 10.53 A 118.596 118.596 0 0 0 126.912 10.752 Q 126.346 11.695 126.105 12.174 A 6.895 6.895 0 0 0 126.096 12.192 A 4.751 4.751 0 0 0 125.897 12.469 Q 125.719 12.739 125.654 12.942 A 0.693 0.693 0 0 0 125.616 13.152 A 0.275 0.275 0 0 0 125.792 13.414 Q 125.948 13.488 126.24 13.488 Q 126.912 13.488 128.496 13.2 Q 129.078 13.117 129.336 13.106 A 1.688 1.688 0 0 1 129.408 13.104 A 3.003 3.003 0 0 1 130.07 13.171 Q 131.005 13.382 131.196 14.268 A 2.1 2.1 0 0 1 131.232 14.496 A 3.27 3.27 0 0 1 131.265 14.766 Q 131.276 14.906 131.279 15.062 A 5.826 5.826 0 0 1 131.28 15.168 Q 131.28 15.51 131.162 15.716 A 0.575 0.575 0 0 1 130.824 15.984 Q 130.428 16.109 129.181 16.126 A 30.161 30.161 0 0 1 128.784 16.128 Q 127.248 16.368 125.616 16.368 A 8.243 8.243 0 0 0 125.32 16.374 Q 125.164 16.379 124.991 16.39 A 13.543 13.543 0 0 0 124.968 16.392 Q 124.608 16.416 124.224 16.512 A 1.731 1.731 0 0 0 124.01 16.579 Q 123.789 16.666 123.672 16.8 A 1.305 1.305 0 0 0 123.567 16.939 Q 123.446 17.124 123.312 17.424 A 0.727 0.727 0 0 0 123.245 17.507 Q 123.082 17.73 122.702 18.415 A 39.252 39.252 0 0 0 122.64 18.528 Q 121.968 19.92 121.776 20.208 Q 120.48 24.048 119.856 28.08 Q 119.76 28.848 119.76 29.04 Q 119.76 29.526 119.978 29.815 A 0.912 0.912 0 0 0 120.24 30.048 Q 120.634 30.285 121.482 30.327 A 7.852 7.852 0 0 0 121.872 30.336 Q 123.504 30.336 124.704 30 Q 125.891 29.486 126.589 29.102 A 8.507 8.507 0 0 0 126.864 28.944 Q 127.296 28.704 127.656 28.488 Q 127.988 28.289 128.136 28.192 A 3.537 3.537 0 0 0 128.16 28.176 A 0.928 0.928 0 0 1 128.23 28.057 Q 128.349 27.888 128.496 27.888 A 0.427 0.427 0 0 1 128.775 28 Q 128.93 28.131 129.066 28.414 A 2.996 2.996 0 0 1 129.168 28.656 A 2.968 2.968 0 0 1 129.087 29.365 A 2.376 2.376 0 0 1 128.832 30 Q 128.496 30.576 127.152 31.344 A 12.168 12.168 0 0 1 124.673 32.574 A 9.206 9.206 0 0 1 121.584 33.12 A 7.275 7.275 0 0 1 120.617 33.058 A 6.172 6.172 0 0 1 120.144 32.976 A 2.014 2.014 0 0 1 119.504 32.729 Q 119.048 32.464 118.584 31.944 A 6.972 6.972 0 0 1 118.105 31.348 Q 117.884 31.037 117.737 30.743 A 3.09 3.09 0 0 1 117.552 30.288 A 0.235 0.235 0 0 0 117.537 30.209 Q 117.526 30.176 117.504 30.141 A 0.624 0.624 0 0 0 117.456 30.073 Q 117.36 29.952 117.312 29.904 A 0.247 0.247 0 0 1 117.242 29.792 Q 117.135 29.508 117.122 28.596 A 18.791 18.791 0 0 1 117.12 28.32 Q 117.12 27.168 117.24 25.92 Q 117.36 24.672 117.552 23.904 Z M 186.816 16.56 L 186.816 16.464 A 0.415 0.415 0 0 1 186.847 16.301 A 0.391 0.391 0 0 1 186.96 16.152 A 0.618 0.618 0 0 1 187.061 16.082 Q 187.128 16.046 187.195 16.036 A 0.349 0.349 0 0 1 187.248 16.032 Q 187.584 15.792 187.872 15.792 A 1.147 1.147 0 0 1 188.428 15.944 Q 188.612 16.045 188.796 16.213 A 3.188 3.188 0 0 1 189.12 16.56 A 3.576 3.576 0 0 1 189.612 17.376 A 2.798 2.798 0 0 1 189.84 18.48 A 3.087 3.087 0 0 1 189.732 19.232 Q 189.439 20.38 188.356 22.246 A 29.775 29.775 0 0 1 188.256 22.416 Q 188.146 22.673 187.965 23.099 A 455.865 455.865 0 0 0 187.848 23.376 A 7.795 7.795 0 0 0 187.745 23.631 Q 187.584 24.052 187.584 24.24 L 190.272 22.416 A 2.545 2.545 0 0 1 190.502 22.195 Q 190.901 21.849 191.761 21.264 A 43.735 43.735 0 0 1 192.336 20.88 A 25.729 25.729 0 0 1 193.023 20.443 Q 194.011 19.838 194.537 19.672 A 1.686 1.686 0 0 1 194.688 19.632 A 21.196 21.196 0 0 1 195.09 19.453 Q 195.887 19.107 196.124 19.104 A 0.326 0.326 0 0 1 196.128 19.104 A 1.093 1.093 0 0 1 196.495 19.176 Q 196.827 19.295 197.251 19.612 A 7.076 7.076 0 0 1 197.688 19.968 Q 198.453 20.639 198.739 21.137 A 1.498 1.498 0 0 1 198.864 21.408 Q 198.864 21.825 198.924 22.062 A 0.899 0.899 0 0 0 198.96 22.176 A 7.452 7.452 0 0 1 199.124 23.08 Q 199.181 23.547 199.195 24.074 A 13.248 13.248 0 0 1 199.2 24.432 A 10.733 10.733 0 0 1 199.17 25.254 A 7.926 7.926 0 0 1 199.08 25.992 Q 198.96 26.688 198.768 26.784 Q 198.768 26.832 198.816 26.928 A 0.162 0.162 0 0 0 198.92 27.013 Q 198.951 27.022 198.988 27.024 A 0.403 0.403 0 0 0 199.008 27.024 L 199.008 27.264 A 0.239 0.239 0 0 0 198.895 27.289 Q 198.678 27.404 198.904 28.057 A 4.046 4.046 0 0 0 198.912 28.08 Q 199.144 28.737 199.5 29.145 A 2.135 2.135 0 0 0 199.68 29.328 A 2.164 2.164 0 0 1 199.928 29.621 Q 200.049 29.795 200.107 29.97 A 1.006 1.006 0 0 1 200.16 30.288 Q 200.16 30.864 199.296 31.104 Q 198.477 31.104 197.902 30.807 A 2.162 2.162 0 0 1 197.712 30.696 A 2.323 2.323 0 0 1 197.19 30.218 Q 196.996 29.981 196.827 29.672 A 4.921 4.921 0 0 1 196.656 29.328 Q 196.224 27.792 196.224 26.256 A 5.697 5.697 0 0 1 196.233 25.923 Q 196.252 25.606 196.309 25.404 A 0.908 0.908 0 0 1 196.368 25.248 Q 196.56 25.056 196.536 24.408 Q 196.514 23.811 196.512 23.52 A 7.994 7.994 0 0 1 196.512 23.472 Q 196.481 22.767 196.216 22.513 A 0.521 0.521 0 0 0 195.84 22.368 A 1.332 1.332 0 0 0 195.451 22.43 Q 195.181 22.512 194.88 22.704 Q 192.192 24.384 190.368 25.584 Q 188.544 26.784 186.864 28.272 A 13.611 13.611 0 0 0 186.442 28.777 Q 186.248 29.022 186.095 29.243 A 5.756 5.756 0 0 0 185.856 29.616 A 45.165 45.165 0 0 1 185.702 29.878 Q 185.516 30.191 185.41 30.356 A 4.321 4.321 0 0 1 185.376 30.408 A 0.533 0.533 0 0 1 185.26 30.535 A 0.425 0.425 0 0 1 184.992 30.624 A 4.773 4.773 0 0 1 184.875 30.661 Q 184.715 30.71 184.637 30.718 A 0.279 0.279 0 0 1 184.608 30.72 A 0.56 0.56 0 0 1 184.432 30.689 Q 184.278 30.638 184.093 30.502 A 2.278 2.278 0 0 1 184.032 30.456 A 17.842 17.842 0 0 1 183.897 30.349 Q 183.675 30.171 183.6 30.096 Q 183.423 29.919 183.043 29.518 A 100.127 100.127 0 0 1 182.976 29.448 A 6.566 6.566 0 0 1 182.828 29.286 Q 182.535 28.956 182.496 28.8 A 1.982 1.982 0 0 1 182.51 28.588 Q 182.562 28.125 182.799 27.063 A 47.834 47.834 0 0 1 182.808 27.024 Q 183.074 25.839 183.252 25.385 A 1.698 1.698 0 0 1 183.312 25.248 Q 183.448 25.248 183.712 24.713 A 6.32 6.32 0 0 0 183.744 24.648 A 10.338 10.338 0 0 1 183.919 24.299 Q 184.101 23.954 184.261 23.727 A 3.041 3.041 0 0 1 184.272 23.712 Q 184.416 22.992 185.52 20.4 A 18.409 18.409 0 0 0 185.9 19.717 Q 186.25 19.055 186.431 18.551 A 5.268 5.268 0 0 0 186.456 18.48 Q 186.657 17.896 186.76 17.089 A 11.937 11.937 0 0 0 186.816 16.56 Z M 165.072 20.352 L 165.072 20.064 A 0.563 0.563 0 0 1 165.137 19.838 Q 165.375 19.335 166.476 18.165 A 32.571 32.571 0 0 1 166.656 17.976 A 28.396 28.396 0 0 1 167.501 17.126 Q 168.284 16.375 168.892 15.936 A 6.061 6.061 0 0 1 169.248 15.696 A 5.015 5.015 0 0 1 170.345 15.124 A 3.911 3.911 0 0 1 171.696 14.88 Q 172.56 14.88 173.184 15.36 A 2.782 2.782 0 0 0 173.335 15.52 Q 173.793 15.981 175.392 17.424 L 177.168 19.008 L 176.304 21.408 A 9.408 9.408 0 0 0 176.013 22.477 Q 175.898 23.03 175.877 23.531 A 5.358 5.358 0 0 0 175.872 23.76 A 6.366 6.366 0 0 0 176.681 26.842 A 7.793 7.793 0 0 0 176.928 27.264 A 1.792 1.792 0 0 0 177.202 27.685 Q 177.461 27.987 177.888 28.272 Q 178.608 28.752 179.328 28.848 Q 180.337 29.031 180.382 29.828 A 1.343 1.343 0 0 1 180.384 29.904 A 1.589 1.589 0 0 1 180.328 30.342 Q 180.186 30.839 179.678 31.012 A 1.501 1.501 0 0 1 179.52 31.056 A 1.198 1.198 0 0 1 179.397 31.079 Q 179.261 31.098 179.068 31.103 A 5.399 5.399 0 0 1 178.944 31.104 Q 176.112 31.104 174.048 27.12 Q 173.856 26.832 173.544 26.064 A 17.17 17.17 0 0 1 173.42 25.751 Q 173.256 25.324 173.202 25.096 A 1.325 1.325 0 0 1 173.184 25.008 A 20.06 20.06 0 0 1 172.948 25.316 Q 172.841 25.453 172.72 25.604 A 39.81 39.81 0 0 1 172.464 25.92 A 14.829 14.829 0 0 1 172.07 26.383 Q 171.879 26.597 171.699 26.78 A 8.91 8.91 0 0 1 171.648 26.832 A 40.181 40.181 0 0 1 169.465 28.871 Q 165.992 31.859 163.7 32.051 A 3.702 3.702 0 0 1 163.392 32.064 A 3.29 3.29 0 0 1 162.163 31.837 A 3.117 3.117 0 0 1 161.664 31.584 A 1.814 1.814 0 0 0 161.509 31.332 Q 161.386 31.162 161.208 30.984 Q 160.896 30.672 160.896 30.576 A 1.87 1.87 0 0 0 160.871 30.262 Q 160.819 29.956 160.656 29.76 Q 160.563 29.667 160.56 29.348 A 2.277 2.277 0 0 1 160.56 29.328 A 1.639 1.639 0 0 1 160.56 29.304 Q 160.571 28.558 161.255 26.835 A 26.782 26.782 0 0 1 161.304 26.712 Q 162.048 24.864 163.248 22.704 Q 163.467 22.485 163.783 22.017 A 13.337 13.337 0 0 0 163.992 21.696 Q 164.438 20.992 164.586 20.885 A 0.194 0.194 0 0 1 164.592 20.88 A 0.513 0.513 0 0 1 164.675 20.603 A 0.696 0.696 0 0 1 164.736 20.52 A 0.539 0.539 0 0 1 164.848 20.419 A 0.399 0.399 0 0 1 165.072 20.352 Z M 66.624 29.712 L 67.536 29.184 A 2.025 2.025 0 0 0 68.062 28.802 A 2.07 2.07 0 0 0 68.064 28.8 L 68.496 28.368 Q 68.588 28.276 68.77 28.072 A 20.209 20.209 0 0 0 68.784 28.056 A 1.751 1.751 0 0 1 68.902 27.935 Q 68.963 27.878 69.022 27.837 A 0.691 0.691 0 0 1 69.144 27.768 Q 69.3 27.701 69.435 27.696 A 0.587 0.587 0 0 1 69.456 27.696 A 0.419 0.419 0 0 1 69.607 27.726 Q 69.729 27.773 69.866 27.893 A 1.562 1.562 0 0 1 69.888 27.912 Q 70.086 28.09 70.218 28.187 A 1.594 1.594 0 0 0 70.272 28.224 Q 70.704 28.224 70.464 28.824 A 2.54 2.54 0 0 1 70.247 29.238 Q 70.004 29.621 69.577 30.068 A 9.216 9.216 0 0 1 69.432 30.216 A 9.877 9.877 0 0 1 67.695 31.593 A 10.921 10.921 0 0 1 67.632 31.632 A 4.206 4.206 0 0 1 64.778 32.688 A 5.332 5.332 0 0 1 64.752 32.688 Q 63.552 32.688 62.472 32.112 Q 61.392 31.536 60.672 30.528 Q 60.048 29.76 59.76 28.8 A 6.157 6.157 0 0 1 59.574 27.949 Q 59.472 27.274 59.472 26.448 Q 59.472 25.968 59.568 24.528 A 8.28 8.28 0 0 1 60.011 22.484 A 11.342 11.342 0 0 1 60.744 20.832 Q 61.776 18.912 63.312 17.4 Q 64.848 15.888 66.336 15.312 A 4.038 4.038 0 0 1 66.825 15.049 Q 67.089 14.93 67.335 14.876 A 1.838 1.838 0 0 1 67.728 14.832 Q 68.064 14.832 68.4 14.88 Q 68.736 14.928 69.12 14.976 Q 70.099 15.109 70.644 15.346 A 2.471 2.471 0 0 1 70.728 15.384 A 2.443 2.443 0 0 1 71.615 16.111 A 2.881 2.881 0 0 1 71.664 16.176 A 4.22 4.22 0 0 1 72.515 17.364 A 3.707 3.707 0 0 1 72.864 18.96 A 3.41 3.41 0 0 1 72.593 19.812 Q 72.216 20.635 71.376 21.6 Q 70.08 23.088 68.256 24 A 5.463 5.463 0 0 1 67.224 24.231 A 7.338 7.338 0 0 1 66.288 24.288 Q 64.8 24.288 63.888 23.664 Q 63.523 23.542 63.295 23.523 A 0.96 0.96 0 0 0 63.216 23.52 Q 62.835 23.52 62.622 23.967 A 1.635 1.635 0 0 0 62.568 24.096 Q 62.359 24.652 62.173 26.104 A 32.441 32.441 0 0 0 62.16 26.208 A 3.681 3.681 0 0 0 62.136 26.433 Q 62.118 26.66 62.113 26.97 A 14.438 14.438 0 0 0 62.112 27.168 Q 62.112 29.616 63.744 29.856 Q 64.561 30.034 65.036 30.08 A 3.071 3.071 0 0 0 65.327 30.096 A 2.084 2.084 0 0 0 65.85 30.025 Q 66.213 29.931 66.624 29.712 Z M 139.68 29.712 L 140.592 29.184 A 2.025 2.025 0 0 0 141.118 28.802 A 2.07 2.07 0 0 0 141.12 28.8 L 141.552 28.368 Q 141.644 28.276 141.826 28.072 A 20.209 20.209 0 0 0 141.84 28.056 A 1.751 1.751 0 0 1 141.958 27.935 Q 142.019 27.878 142.078 27.837 A 0.691 0.691 0 0 1 142.2 27.768 Q 142.356 27.701 142.491 27.696 A 0.587 0.587 0 0 1 142.512 27.696 A 0.419 0.419 0 0 1 142.663 27.726 Q 142.785 27.773 142.922 27.893 A 1.562 1.562 0 0 1 142.944 27.912 Q 143.142 28.09 143.274 28.187 A 1.594 1.594 0 0 0 143.328 28.224 Q 143.76 28.224 143.52 28.824 A 2.54 2.54 0 0 1 143.303 29.238 Q 143.06 29.621 142.633 30.068 A 9.216 9.216 0 0 1 142.488 30.216 A 9.877 9.877 0 0 1 140.751 31.593 A 10.921 10.921 0 0 1 140.688 31.632 A 4.206 4.206 0 0 1 137.834 32.688 A 5.332 5.332 0 0 1 137.808 32.688 Q 136.608 32.688 135.528 32.112 Q 134.448 31.536 133.728 30.528 Q 133.104 29.76 132.816 28.8 A 6.157 6.157 0 0 1 132.63 27.949 Q 132.528 27.274 132.528 26.448 Q 132.528 25.968 132.624 24.528 A 8.28 8.28 0 0 1 133.067 22.484 A 11.342 11.342 0 0 1 133.8 20.832 Q 134.832 18.912 136.368 17.4 Q 137.904 15.888 139.392 15.312 A 4.038 4.038 0 0 1 139.881 15.049 Q 140.145 14.93 140.391 14.876 A 1.838 1.838 0 0 1 140.784 14.832 Q 141.12 14.832 141.456 14.88 Q 141.792 14.928 142.176 14.976 Q 143.155 15.109 143.7 15.346 A 2.471 2.471 0 0 1 143.784 15.384 A 2.443 2.443 0 0 1 144.671 16.111 A 2.881 2.881 0 0 1 144.72 16.176 A 4.22 4.22 0 0 1 145.571 17.364 A 3.707 3.707 0 0 1 145.92 18.96 A 3.41 3.41 0 0 1 145.649 19.812 Q 145.272 20.635 144.432 21.6 Q 143.136 23.088 141.312 24 A 5.463 5.463 0 0 1 140.28 24.231 A 7.338 7.338 0 0 1 139.344 24.288 Q 137.856 24.288 136.944 23.664 Q 136.579 23.542 136.351 23.523 A 0.96 0.96 0 0 0 136.272 23.52 Q 135.891 23.52 135.678 23.967 A 1.635 1.635 0 0 0 135.624 24.096 Q 135.415 24.652 135.229 26.104 A 32.441 32.441 0 0 0 135.216 26.208 A 3.681 3.681 0 0 0 135.192 26.433 Q 135.174 26.66 135.169 26.97 A 14.438 14.438 0 0 0 135.168 27.168 Q 135.168 29.616 136.8 29.856 Q 137.617 30.034 138.092 30.08 A 3.071 3.071 0 0 0 138.383 30.096 A 2.084 2.084 0 0 0 138.906 30.025 Q 139.269 29.931 139.68 29.712 Z M 75.792 25.872 L 76.032 24.912 Q 76.151 23.923 77.216 21.138 A 90.13 90.13 0 0 1 77.712 19.872 A 72.204 72.204 0 0 1 78.443 18.107 Q 79.465 15.738 80.176 14.687 A 6.464 6.464 0 0 1 80.208 14.64 Q 80.592 14.4 81.024 14.4 A 1.486 1.486 0 0 1 81.665 14.537 A 1.472 1.472 0 0 1 82.08 14.832 Q 82.307 14.983 82.355 15.343 A 1.579 1.579 0 0 1 82.368 15.552 Q 82.368 15.944 82.127 16.642 A 9.991 9.991 0 0 1 82.008 16.968 Q 81.732 17.685 81.161 18.922 A 89.976 89.976 0 0 1 80.784 19.728 A 9.738 9.738 0 0 0 80.68 19.945 Q 80.485 20.359 80.136 21.168 Q 79.703 22.172 79.681 22.395 A 0.222 0.222 0 0 0 79.68 22.416 A 0.288 0.288 0 0 0 79.682 22.448 Q 79.685 22.48 79.697 22.496 A 0.037 0.037 0 0 0 79.728 22.512 A 0.278 0.278 0 0 0 79.842 22.487 Q 79.879 22.47 79.915 22.444 A 0.495 0.495 0 0 0 79.92 22.44 A 1.333 1.333 0 0 1 80.049 22.354 A 1.129 1.129 0 0 1 80.112 22.32 Q 80.64 21.408 82.68 19.824 Q 84.44 18.458 85.253 17.984 A 4.255 4.255 0 0 1 85.488 17.856 Q 85.739 17.713 86.096 17.569 A 8.491 8.491 0 0 1 86.352 17.472 A 20.265 20.265 0 0 0 86.588 17.385 Q 86.927 17.257 87.072 17.184 Q 87.84 16.8 88.896 16.8 A 3.535 3.535 0 0 1 89.48 16.846 A 2.58 2.58 0 0 1 90.072 17.016 A 1.527 1.527 0 0 1 90.427 17.225 A 1.159 1.159 0 0 1 90.768 17.664 Q 90.816 18 91.032 18.192 Q 91.236 18.373 91.333 18.426 A 0.35 0.35 0 0 0 91.344 18.432 A 0.265 0.265 0 0 1 91.417 18.441 A 0.176 0.176 0 0 1 91.536 18.552 Q 91.584 18.672 91.584 18.72 Q 91.584 19.048 91.219 19.124 A 0.896 0.896 0 0 1 91.2 19.128 Q 90.816 19.2 89.808 19.248 A 4.54 4.54 0 0 0 89.129 19.364 A 5.587 5.587 0 0 0 88.704 19.488 Q 88.128 19.68 87.552 19.968 Q 85.494 21.144 84.238 21.926 A 36.567 36.567 0 0 0 83.544 22.368 Q 82.224 23.232 80.88 24.72 Q 80.352 25.296 79.488 26.784 Q 79.152 27.12 78.792 28.536 A 41.036 41.036 0 0 0 78.67 29.029 Q 78.432 30.015 78.432 30.288 Q 78.393 30.406 78.289 30.702 A 117.157 117.157 0 0 1 78.24 30.84 Q 78.096 31.248 77.808 31.632 Q 77.232 32.4 76.848 32.4 A 0.69 0.69 0 0 1 76.582 32.339 Q 76.214 32.184 75.696 31.632 Q 75.312 31.344 75.168 31.104 A 0.826 0.826 0 0 1 75.086 30.911 Q 75.03 30.72 75.025 30.446 A 3.047 3.047 0 0 1 75.024 30.384 Q 75.024 29.952 75.072 29.664 A 17.165 17.165 0 0 1 75.26 28.251 Q 75.45 27.154 75.792 25.872 Z M 172.608 21.36 L 173.664 19.632 A 7.231 7.231 0 0 0 173.359 19.056 Q 173.025 18.491 172.668 18.178 A 2.179 2.179 0 0 0 172.656 18.168 Q 172.136 17.719 171.71 17.712 A 0.824 0.824 0 0 0 171.696 17.712 A 1.344 1.344 0 0 0 171.123 17.868 Q 170.328 18.254 169.098 19.589 A 24.287 24.287 0 0 0 168.528 20.232 A 28.768 28.768 0 0 0 165.993 23.705 A 35.977 35.977 0 0 0 164.592 26.16 Q 164.16 26.976 163.824 27.816 L 163.392 28.896 A 0.145 0.145 0 0 0 163.483 29.039 Q 163.6 29.093 163.87 29.045 A 2.142 2.142 0 0 0 163.896 29.04 A 2.936 2.936 0 0 0 164.269 28.941 Q 164.654 28.813 165.144 28.56 A 7.944 7.944 0 0 0 165.989 28.052 A 10.226 10.226 0 0 0 166.656 27.552 A 59.323 59.323 0 0 0 169.011 25.421 Q 171.107 23.412 172.331 21.748 A 16.026 16.026 0 0 0 172.608 21.36 Z M 67.584 21.456 A 3.901 3.901 0 0 0 68.303 21.061 Q 68.622 20.842 68.945 20.543 A 7.59 7.59 0 0 0 69.24 20.256 Q 70.08 19.392 70.08 18.816 A 1.225 1.225 0 0 0 69.7 17.905 A 1.505 1.505 0 0 0 69.648 17.856 A 1.435 1.435 0 0 0 69.077 17.552 Q 68.868 17.492 68.618 17.477 A 2.852 2.852 0 0 0 68.448 17.472 Q 67.961 17.472 67.68 17.541 A 1.214 1.214 0 0 0 67.584 17.568 A 2.359 2.359 0 0 0 67.117 17.764 Q 66.684 17.997 66.17 18.447 A 9.12 9.12 0 0 0 66 18.6 Q 65.088 19.44 64.416 20.304 Q 63.797 21.1 63.87 21.285 A 0.079 0.079 0 0 0 63.888 21.312 Q 64.128 21.744 65.76 21.744 A 6.998 6.998 0 0 0 66.504 21.707 Q 67.123 21.64 67.584 21.456 Z M 140.64 21.456 A 3.901 3.901 0 0 0 141.359 21.061 Q 141.678 20.842 142.001 20.543 A 7.59 7.59 0 0 0 142.296 20.256 Q 143.136 19.392 143.136 18.816 A 1.225 1.225 0 0 0 142.756 17.905 A 1.505 1.505 0 0 0 142.704 17.856 A 1.435 1.435 0 0 0 142.133 17.552 Q 141.924 17.492 141.674 17.477 A 2.852 2.852 0 0 0 141.504 17.472 Q 141.017 17.472 140.736 17.541 A 1.214 1.214 0 0 0 140.64 17.568 A 2.359 2.359 0 0 0 140.173 17.764 Q 139.74 17.997 139.226 18.447 A 9.12 9.12 0 0 0 139.056 18.6 Q 138.144 19.44 137.472 20.304 Q 136.853 21.1 136.926 21.285 A 0.079 0.079 0 0 0 136.944 21.312 Q 137.184 21.744 138.816 21.744 A 6.998 6.998 0 0 0 139.56 21.707 Q 140.179 21.64 140.64 21.456 Z" vector-effect="non-scaling-stroke"/></g></svg>